PathFileType	4	(X/Y/Z)	C:\Users\Caesar\Desktop\±œ“µ…Ëº∆\Lee-Son's Toolbox\Example Data\Static.trc	Maker trajectories (.TRC) by Lee-Son ToolBox
DataRate	CameraRate	NumFrames	NumMarkers	Units	OrigDataRate	OrigDataStarFrame	OrigNumFrames
100	100	4	42	mm	100	1	264
Frame#	Time	CLAV			C7			RACR			LACR			RASH			RPSH			RUA3			RLEL			RMEL			RFAsuperior			RFAradius			RFAulna			LASH			LPSH			LUA1			LLEL			LMEL			LFAsuperior			LFAradius			LFAulna			LASI			RASI			LPSI			RPSI			RTH3			RLFC			RMFC			RTB3			RLMAL			RMMAL			RCAL			RMT5			RTOE			LTH1			LLFC			LMFC			LTB1			LLMAL			LMMAL			LCAL			LMT5			LTOE		
		X1	Y1	Z1	X2	Y2	Z2	X3	Y3	Z3	X4	Y4	Z4	X5	Y5	Z5	X6	Y6	Z6	X7	Y7	Z7	X8	Y8	Z8	X9	Y9	Z9	X10	Y10	Z10	X11	Y11	Z11	X12	Y12	Z12	X13	Y13	Z13	X14	Y14	Z14	X15	Y15	Z15	X16	Y16	Z16	X17	Y17	Z17	X18	Y18	Z18	X19	Y19	Z19	X20	Y20	Z20	X21	Y21	Z21	X22	Y22	Z22	X23	Y23	Z23	X24	Y24	Z24	X25	Y25	Z25	X26	Y26	Z26	X27	Y27	Z27	X28	Y28	Z28	X29	Y29	Z29	X30	Y30	Z30	X31	Y31	Z31	X32	Y32	Z32	X33	Y33	Z33	X34	Y34	Z34	X35	Y35	Z35	X36	Y36	Z36	X37	Y37	Z37	X38	Y38	Z38	X39	Y39	Z39	X40	Y40	Z40	X41	Y41	Z41	X42	Y42	Z42

166	1.65	588.947	1419.16	192.409	569.371	1468.5	333.038	734.904	1422.96	274.927	413.456	1450.33	283.17	735.514	1380	216.472	719.447	1366.8	353.745	818.375	1280.47	309.867	877.268	1135.31	318.771	827.719	1108.48	272.703	906.435	1080.04	328.033	1066.56	973.243	278.654	1011.79	929.15	313.203	415.199	1412.4	222.298	402.986	1389.79	352.926	330.775	1379.7	310.162	240.505	1157.64	332.183	299.823	1144.14	282.822	205.332	1109.08	340.345	80.9833	986.665	287.405	132.754	946.142	326.287	423.211	964.758	188.34	696.714	961.276	192.911	521.138	991.432	359.509	613.809	985.44	363.349	762.904	769.742	237.061	764.17	506.647	278.252	663.011	491.235	289.341	807.533	394.439	333.168	784.042	93.2999	349.89	696.848	102.859	311.007	734.356	44.7156	411.442	825.186	27.2392	236.471	757.801	38.3551	154.806	358.545	678.747	260.098	372.447	515.734	275.261	472.661	492.418	273.896	342.459	232.056	349.341	352.851	103.632	348.771	437.002	113.748	311.847	407.592	41.3469	408.904	306.007	30.2083	241.162	364.872	39.7377	154.528
167	1.66	588.955	1419.15	192.293	569.394	1468.5	332.926	734.915	1422.94	274.807	413.471	1450.33	283.067	735.521	1379.99	216.353	719.459	1366.79	353.628	818.384	1280.46	309.752	877.278	1135.3	318.66	827.729	1108.47	272.595	906.447	1080.04	327.926	1066.57	973.234	278.547	1011.8	929.141	313.097	415.207	1412.4	222.196	403.001	1389.79	352.827	330.79	1379.7	310.066	240.515	1157.65	332.108	299.831	1144.13	282.746	205.342	1109.09	340.276	80.9901	986.669	287.35	132.761	946.149	326.235	423.212	964.749	188.265	696.714	961.261	192.843	521.135	991.447	359.433	613.805	985.455	363.275	762.903	769.735	237.018	764.169	506.644	278.233	663.01	491.228	289.327	807.532	394.441	333.154	784.037	93.3028	349.888	696.845	102.86	311.004	734.354	44.7167	411.441	825.185	27.2393	236.47	757.8	38.3528	154.805	358.544	678.744	260.055	372.446	515.731	275.233	472.661	492.413	273.87	342.457	232.061	349.329	352.853	103.637	348.768	437.003	113.75	311.844	407.593	41.3492	408.902	306.01	30.2083	241.163	364.874	39.7355	154.528
168	1.67	588.962	1419.14	192.179	569.416	1468.5	332.815	734.926	1422.93	274.688	413.485	1450.34	282.964	735.528	1379.97	216.235	719.471	1366.78	353.512	818.393	1280.45	309.636	877.287	1135.29	318.55	827.738	1108.46	272.488	906.457	1080.03	327.819	1066.58	973.225	278.44	1011.81	929.133	312.993	415.216	1412.4	222.093	403.017	1389.8	352.728	330.804	1379.7	309.97	240.525	1157.66	332.033	299.839	1144.13	282.671	205.351	1109.1	340.206	80.9965	986.673	287.294	132.768	946.156	326.183	423.212	964.74	188.191	696.713	961.247	192.774	521.132	991.461	359.356	613.801	985.469	363.201	762.901	769.728	236.975	764.168	506.641	278.214	663.01	491.222	289.313	807.531	394.443	333.139	784.033	93.3056	349.886	696.841	102.86	311.001	734.351	44.7178	411.44	825.184	27.2395	236.47	757.799	38.3504	154.805	358.542	678.74	260.011	372.444	515.728	275.205	472.661	492.408	273.845	342.455	232.066	349.316	352.854	103.642	348.764	437.004	113.753	311.841	407.593	41.3514	408.9	306.012	30.2083	241.165	364.877	39.7333	154.528
169	1.68	588.97	1419.13	192.064	569.438	1468.49	332.705	734.936	1422.92	274.57	413.498	1450.34	282.862	735.534	1379.96	216.117	719.483	1366.78	353.395	818.401	1280.44	309.522	877.295	1135.28	318.44	827.747	1108.45	272.381	906.468	1080.02	327.712	1066.59	973.215	278.334	1011.82	929.123	312.888	415.225	1412.4	221.991	403.032	1389.8	352.63	330.817	1379.71	309.874	240.534	1157.66	331.958	299.846	1144.13	282.595	205.36	1109.1	340.137	81.0024	986.678	287.239	132.774	946.163	326.13	423.213	964.731	188.116	696.712	961.233	192.706	521.128	991.475	359.28	613.796	985.484	363.128	762.899	769.721	236.932	764.166	506.638	278.195	663.008	491.215	289.298	807.529	394.445	333.125	784.029	93.3085	349.883	696.837	102.86	310.999	734.349	44.7189	411.439	825.183	27.2397	236.469	757.798	38.3481	154.804	358.541	678.737	259.967	372.441	515.725	275.177	472.66	492.403	273.819	342.454	232.071	349.304	352.856	103.646	348.761	437.005	113.755	311.837	407.593	41.3537	408.899	306.014	30.2084	241.167	364.88	39.7312	154.528
